<svg width="34" height="34" viewBox="0 0 34 34" fill="none" xmlns="http://www.w3.org/2000/svg">
<path d="M14.875 8.5C12.7736 8.5 10.7193 9.12315 8.97207 10.2906C7.2248 11.4581 5.86297 13.1175 5.05878 15.059C4.2546 17.0005 4.04419 19.1368 4.45416 21.1978C4.86413 23.2589 5.87606 25.1521 7.362 26.638C8.84793 28.1239 10.7411 29.1359 12.8022 29.5458C14.8632 29.9558 16.9996 29.7454 18.941 28.9412C20.8825 28.137 22.5419 26.7752 23.7094 25.0279C24.8769 23.2807 25.5 21.2264 25.5 19.125H14.875V8.5Z" stroke="white" stroke-width="2" stroke-linecap="round" stroke-linejoin="round"/>
<path d="M19.125 14.875H29.75C29.75 12.0571 28.6306 9.35456 26.638 7.36199C24.6454 5.36942 21.9429 4.25 19.125 4.25V14.875Z" stroke="white" stroke-width="2" stroke-linecap="round" stroke-linejoin="round"/>
</svg>
